<?xml version="1.0" encoding="UTF-8" standalone="no"?>
<!-- Created with Inkscape (http://www.inkscape.org/) -->

<svg
   xmlns:dc="http://purl.org/dc/elements/1.1/"
   xmlns:cc="http://creativecommons.org/ns#"
   xmlns:rdf="http://www.w3.org/1999/02/22-rdf-syntax-ns#"
   xmlns:svg="http://www.w3.org/2000/svg"
   xmlns="http://www.w3.org/2000/svg"
   xmlns:sodipodi="http://sodipodi.sourceforge.net/DTD/sodipodi-0.dtd"
   xmlns:inkscape="http://www.inkscape.org/namespaces/inkscape"
   width="39.2467mm"
   height="10.728028mm"
   viewBox="0 0 39.2467 10.728028"
   version="1.1"
   id="svg8"
   inkscape:version="0.92.2 (5c3e80d, 2017-08-06)"
   sodipodi:docname="logo.svg">
  <defs
     id="defs2" />
  <sodipodi:namedview
     id="base"
     pagecolor="#ffffff"
     bordercolor="#666666"
     borderopacity="1.0"
     inkscape:pageopacity="0.0"
     inkscape:pageshadow="2"
     inkscape:zoom="3.959798"
     inkscape:cx="100.49222"
     inkscape:cy="23.569119"
     inkscape:document-units="mm"
     inkscape:current-layer="layer1"
     showgrid="false"
     inkscape:window-width="1366"
     inkscape:window-height="705"
     inkscape:window-x="-8"
     inkscape:window-y="-8"
     inkscape:window-maximized="1"
     fit-margin-top="0"
     fit-margin-left="0"
     fit-margin-right="0"
     fit-margin-bottom="-0.2" />
  <metadata
     id="metadata5">
    <rdf:RDF>
      <cc:Work
         rdf:about="">
        <dc:format>image/svg+xml</dc:format>
        <dc:type
           rdf:resource="http://purl.org/dc/dcmitype/StillImage" />
        <dc:title></dc:title>
      </cc:Work>
    </rdf:RDF>
  </metadata>
  <g
     inkscape:label="Capa 1"
     inkscape:groupmode="layer"
     id="layer1"
     transform="translate(-35.326526,-63.103124)">
    <path
       style="font-style:normal;font-variant:normal;font-weight:normal;font-stretch:normal;font-size:10.58333302px;line-height:1.25;font-family:'Swis721 BlkEx BT';-inkscape-font-specification:'Swis721 BlkEx BT';letter-spacing:0px;word-spacing:0px;fill:#24221c;fill-opacity:1;stroke:none;stroke-width:0.99999994"
       d="m 281.51953,254.14648 c -0.60019,-4.76284 -2.78063,-8.53273 -6.72461,-11.19336 -4.375,-2.96874 -10.55686,-4.45312 -18.54297,-4.45312 -8.55902,0 -15.01736,1.71072 -19.375,5.13086 -3.2858,2.56581 -5.32461,6.07433 -6.13281,10.51562 h 16.375 c 0.41971,-1.1968 0.99379,-2.24928 1.78906,-3.09375 1.70139,-1.78819 4.14931,-2.68164 7.34375,-2.68164 2.5,0 4.47114,0.625 5.91211,1.875 1.08788,0.9437 1.72185,2.31351 2.12696,3.90039 z"
       id="path3743"
       transform="scale(0.26458333)"
       inkscape:connector-curvature="0" />
    <path
       style="font-style:normal;font-variant:normal;font-weight:normal;font-stretch:normal;font-size:10.58333302px;line-height:1.25;font-family:'Swis721 BlkEx BT';-inkscape-font-specification:'Swis721 BlkEx BT';letter-spacing:0px;word-spacing:0px;fill:#aad400;fill-opacity:1;stroke:none;stroke-width:0.26458332"
       d="m 74.485374,67.242922 h -4.558376 c 0.03479,0.136279 0.08966,0.253524 0.105418,0.407728 h 4.513421 c -0.0068,-0.144359 -0.04311,-0.27001 -0.06046,-0.407728 z"
       id="path3741"
       inkscape:connector-curvature="0" />
    <path
       style="font-style:normal;font-variant:normal;font-weight:normal;font-stretch:normal;font-size:10.58333302px;line-height:1.25;font-family:'Swis721 BlkEx BT';-inkscape-font-specification:'Swis721 BlkEx BT';letter-spacing:0px;word-spacing:0px;fill:#aad400;fill-opacity:1;stroke:none;stroke-width:0.26458332"
       d="m 69.931131,69.781787 h 4.585766 c 0.01508,-0.07915 0.04439,-0.147995 0.05633,-0.229444 h -4.554244 c -0.01902,0.08705 -0.06231,0.149153 -0.08785,0.229444 z"
       id="path3739"
       inkscape:connector-curvature="0" />
    <path
       style="font-style:normal;font-variant:normal;font-weight:normal;font-stretch:normal;font-size:10.58333302px;line-height:1.25;font-family:'Swis721 BlkEx BT';-inkscape-font-specification:'Swis721 BlkEx BT';letter-spacing:0px;word-spacing:0px;fill:#24221c;fill-opacity:1;stroke:none;stroke-width:0.99999994"
       d="m 230.82422,263.74219 c 0.84905,4.27587 2.85049,7.68785 6.05273,10.20117 4.35764,3.40278 10.81598,5.10352 19.375,5.10352 7.62153,0 13.59506,-1.3622 17.91797,-4.0879 4.08959,-2.56826 6.53894,-6.3365 7.46875,-11.21679 h -17.33203 c -0.50967,1.60216 -1.28356,2.92993 -2.48047,3.82031 -1.40625,1.04167 -3.26519,1.5625 -5.57422,1.5625 -3.19444,0 -5.64236,-0.88542 -7.34375,-2.65625 -0.70676,-0.7432 -1.1797,-1.70509 -1.58984,-2.72656 z"
       id="path3737"
       transform="scale(0.26458333)"
       inkscape:connector-curvature="0" />
    <path
       style="font-style:normal;font-variant:normal;font-weight:normal;font-stretch:normal;font-size:10.58333302px;line-height:1.25;font-family:'Swis721 BlkEx BT';-inkscape-font-specification:'Swis721 BlkEx BT';letter-spacing:0px;word-spacing:0px;fill:#aad400;fill-opacity:1;stroke:none;stroke-width:0.26458332"
       d="m 61.07224,69.781787 h 4.364075 c -0.150051,-0.3737 -0.247531,-0.796565 -0.247531,-1.311032 0,-0.470299 0.07072,-0.873958 0.194821,-1.227833 h -4.332552 c -0.06975,0.383315 -0.106453,0.791718 -0.106453,1.227833 0,0.468898 0.04659,0.902843 0.12764,1.311032 z"
       id="path3735"
       inkscape:connector-curvature="0" />
    <path
       style="font-style:normal;font-variant:normal;font-weight:normal;font-stretch:normal;font-size:10.58333302px;line-height:1.25;font-family:'Swis721 BlkEx BT';-inkscape-font-specification:'Swis721 BlkEx BT';letter-spacing:0px;word-spacing:0px;fill:#24221c;fill-opacity:1;stroke:none;stroke-width:0.99999994"
       d="m 133.51758,263.74219 v 14.28906 h 14.92187 v -14.28906 z"
       id="path3733"
       transform="scale(0.26458333)"
       inkscape:connector-curvature="0" />
    <path
       style="font-style:normal;font-variant:normal;font-weight:normal;font-stretch:normal;font-size:10.58333302px;line-height:1.25;font-family:'Swis721 BlkEx BT';-inkscape-font-specification:'Swis721 BlkEx BT';letter-spacing:0px;word-spacing:0px;fill:#24221c;fill-opacity:1;stroke:none;stroke-width:0.99999994"
       d="m 148.43945,254.14648 v -5.17773 h 23.51563 v -9.45313 h -38.4375 v 14.63086 z"
       id="path3731"
       transform="scale(0.26458333)"
       inkscape:connector-curvature="0" />
    <path
       style="font-style:normal;font-variant:normal;font-weight:normal;font-stretch:normal;font-size:10.58333302px;line-height:1.25;font-family:'Swis721 BlkEx BT';-inkscape-font-specification:'Swis721 BlkEx BT';letter-spacing:0px;word-spacing:0px;fill:#006680;fill-opacity:1;stroke:none;stroke-width:0.26458332"
       d="m 39.274604,67.258423 h -3.948078 v 2.538864 h 3.948078 v -0.0155 h 5.084961 v -2.508374 h -5.084961 z"
       id="path3729"
       inkscape:connector-curvature="0" />
    <path
       style="font-style:normal;font-variant:normal;font-weight:normal;font-stretch:normal;font-size:10.58333302px;line-height:1.25;font-family:'Swis721 BlkEx BT';-inkscape-font-specification:'Swis721 BlkEx BT';letter-spacing:0px;word-spacing:0px;fill:#d40000;fill-opacity:1;stroke:none;stroke-width:0.26458332"
       d="m 46.299497,69.781787 h 4.364594 c -0.150051,-0.3737 -0.248047,-0.796565 -0.248047,-1.311032 0,-0.470299 0.07124,-0.873958 0.195336,-1.227833 h -4.333068 c -0.06975,0.383315 -0.106455,0.791718 -0.106455,1.227833 0,0.468895 0.04659,0.902846 0.12764,1.311032 z"
       id="path3727"
       inkscape:connector-curvature="0" />
    <path
       style="font-style:normal;font-variant:normal;font-weight:normal;font-stretch:normal;font-size:10.58333302px;line-height:1.25;font-family:'Swis721 BlkEx BT';-inkscape-font-specification:'Swis721 BlkEx BT';letter-spacing:0px;word-spacing:0px;fill:#24221c;fill-opacity:1;stroke:none;stroke-width:0.99999994"
       d="m 225.84766,263.74219 h -16.50391 c -0.4144,1.02172 -0.89323,1.98322 -1.60742,2.72656 -1.68403,1.77083 -4.12196,2.65625 -7.31641,2.65625 -3.19444,0 -5.64236,-0.88542 -7.34375,-2.65625 -0.70677,-0.7432 -1.1797,-1.70509 -1.58984,-2.72656 h -16.4961 c 0.84905,4.27589 2.85244,7.68784 6.05469,10.20117 4.35764,3.40278 10.81597,5.10352 19.375,5.10352 8.55903,0 15.01736,-1.70074 19.375,-5.10352 3.20225,-2.51332 5.20369,-5.9253 6.05274,-10.20117 z"
       id="path3725"
       transform="scale(0.26458333)"
       inkscape:connector-curvature="0" />
    <path
       style="font-style:normal;font-variant:normal;font-weight:normal;font-stretch:normal;font-size:10.58333302px;line-height:1.25;font-family:'Swis721 BlkEx BT';-inkscape-font-specification:'Swis721 BlkEx BT';letter-spacing:0px;word-spacing:0px;fill:#d40000;fill-opacity:1;stroke:none;stroke-width:0.26458332"
       d="m 59.776711,67.242922 h -4.334619 c 0.125347,0.353843 0.196887,0.757597 0.196887,1.227833 0,0.514398 -0.09856,0.937364 -0.250113,1.311032 h 4.36666 c 0.08105,-0.408189 0.12764,-0.842134 0.12764,-1.311032 0,-0.436115 -0.0367,-0.844518 -0.106455,-1.227833 z"
       id="path3723"
       inkscape:connector-curvature="0" />
    <path
       style="font-style:normal;font-variant:normal;font-weight:normal;font-stretch:normal;font-size:10.58333302px;line-height:1.25;font-family:'Swis721 BlkEx BT';-inkscape-font-specification:'Swis721 BlkEx BT';letter-spacing:0px;word-spacing:0px;fill:#24221c;fill-opacity:1;stroke:none;stroke-width:0.99999994"
       d="m 200.41992,238.5 c -8.55903,0 -15.01736,1.71072 -19.375,5.13086 -3.28581,2.56581 -5.32657,6.07433 -6.13476,10.51562 h 16.37695 c 0.41971,-1.1968 0.99379,-2.24928 1.78906,-3.09375 1.70139,-1.78819 4.14931,-2.68164 7.34375,-2.68164 3.19445,0 5.63238,0.89345 7.31641,2.68164 0.80359,0.8446 1.38455,1.89672 1.80859,3.09375 h 16.38281 c -0.80819,-4.44129 -2.847,-7.94981 -6.13281,-10.51562 -4.35764,-3.42014 -10.81597,-5.13086 -19.375,-5.13086 z"
       id="text3701"
       transform="scale(0.26458333)"
       inkscape:connector-curvature="0" />
  </g>
</svg>
